<?xml version="1.0" standalone="no"?>
<!DOCTYPE svg PUBLIC "-//W3C//DTD SVG 20010904//EN"
 "http://www.w3.org/TR/2001/REC-SVG-20010904/DTD/svg10.dtd">
<svg version="1.0" xmlns="http://www.w3.org/2000/svg"
 width="100.000000pt" height="100.000000pt" viewBox="0 0 100.000000 100.000000"
 preserveAspectRatio="xMidYMid meet">
<metadata>
Created by potrace 1.15, written by Peter Selinger 2001-2017
</metadata>
<g transform="translate(0.000000,100.000000) scale(0.100000,-0.100000)"
fill="#000000" stroke="none">
<path d="M428 957 c-53 -40 -105 -124 -114 -184 -4 -25 -1 -62 6 -88 17 -60 6
-109 -37 -173 -31 -45 -35 -58 -30 -93 7 -50 35 -83 102 -116 101 -51 119 -75
99 -127 -15 -39 -84 -2 -84 45 0 37 -37 58 -73 42 -37 -17 -51 -1 -48 55 3 56
-24 120 -61 146 -28 20 -32 15 -24 -29 6 -29 11 -35 25 -30 13 4 20 -1 25 -17
9 -34 7 -76 -3 -82 -12 -8 -61 32 -61 49 0 12 -59 40 -67 32 -8 -9 29 -77 38
-71 10 6 59 -32 59 -47 0 -11 -52 -25 -79 -21 -18 3 -22 8 -18 28 4 23 2 24
-42 24 l-46 -1 42 -39 c52 -49 84 -58 141 -38 42 16 43 15 58 -7 12 -18 13
-28 5 -44 -16 -28 -14 -34 19 -76 17 -21 30 -46 30 -56 0 -18 13 -19 262 -19
l262 0 -36 38 c-60 61 -84 143 -57 194 6 11 26 33 44 49 45 40 65 87 65 153 0
31 4 56 8 56 5 0 28 13 52 29 79 53 122 148 106 234 -9 46 -58 118 -95 140
-36 21 -35 22 -16 -33 21 -60 19 -87 -10 -115 -34 -35 -66 -31 -119 14 -63 55
-101 65 -214 58 l-94 -6 4 43 c3 24 13 58 22 76 9 18 16 35 16 37 0 10 -24 -1
-62 -30z m152 -269 c10 -17 22 -48 25 -68 14 -83 -42 -190 -99 -190 l-27 0 21
28 c39 53 26 142 -21 142 -22 0 -23 9 -7 47 36 83 74 97 108 41z"/>
</g>
</svg>
